<mxfile host="app.diagrams.net" modified="2023-07-10T07:38:10.253Z" agent="Mozilla/5.0 (Windows NT 10.0; Win64; x64; rv:109.0) Gecko/20100101 Firefox/114.0" etag="--RD15RAEqjnCErNiQyL" version="21.6.1" type="device">
  <diagram id="C5RBs43oDa-KdzZeNtuy" name="Page-1">
    <mxGraphModel dx="1313" dy="611" grid="1" gridSize="10" guides="1" tooltips="1" connect="1" arrows="1" fold="1" page="1" pageScale="1" pageWidth="827" pageHeight="1169" math="0" shadow="0">
      <root>
        <mxCell id="WIyWlLk6GJQsqaUBKTNV-0" />
        <mxCell id="WIyWlLk6GJQsqaUBKTNV-1" parent="WIyWlLk6GJQsqaUBKTNV-0" />
        <mxCell id="pGSttOoYL-2_VQbNKx7G-2" style="edgeStyle=orthogonalEdgeStyle;rounded=0;orthogonalLoop=1;jettySize=auto;html=1;entryX=0.5;entryY=0;entryDx=0;entryDy=0;exitX=0.5;exitY=1;exitDx=0;exitDy=0;" parent="WIyWlLk6GJQsqaUBKTNV-1" source="pGSttOoYL-2_VQbNKx7G-18" edge="1">
          <mxGeometry relative="1" as="geometry">
            <mxPoint x="351.94" y="70" as="sourcePoint" />
            <mxPoint x="351.94" y="130" as="targetPoint" />
          </mxGeometry>
        </mxCell>
        <mxCell id="pGSttOoYL-2_VQbNKx7G-4" style="edgeStyle=orthogonalEdgeStyle;rounded=0;orthogonalLoop=1;jettySize=auto;html=1;exitX=0.5;exitY=1;exitDx=0;exitDy=0;entryX=0.5;entryY=0;entryDx=0;entryDy=0;" parent="WIyWlLk6GJQsqaUBKTNV-1" source="pGSttOoYL-2_VQbNKx7G-8" target="pGSttOoYL-2_VQbNKx7G-3" edge="1">
          <mxGeometry relative="1" as="geometry">
            <mxPoint x="351.94" y="190" as="sourcePoint" />
          </mxGeometry>
        </mxCell>
        <mxCell id="pGSttOoYL-2_VQbNKx7G-14" style="edgeStyle=orthogonalEdgeStyle;rounded=0;orthogonalLoop=1;jettySize=auto;html=1;exitX=0.5;exitY=1;exitDx=0;exitDy=0;entryX=0.5;entryY=0;entryDx=0;entryDy=0;" parent="WIyWlLk6GJQsqaUBKTNV-1" source="pGSttOoYL-2_VQbNKx7G-3" target="pGSttOoYL-2_VQbNKx7G-10" edge="1">
          <mxGeometry relative="1" as="geometry" />
        </mxCell>
        <mxCell id="pGSttOoYL-2_VQbNKx7G-15" style="edgeStyle=orthogonalEdgeStyle;rounded=0;orthogonalLoop=1;jettySize=auto;html=1;exitX=0.5;exitY=1;exitDx=0;exitDy=0;entryX=0.5;entryY=0;entryDx=0;entryDy=0;" parent="WIyWlLk6GJQsqaUBKTNV-1" source="pGSttOoYL-2_VQbNKx7G-3" target="pGSttOoYL-2_VQbNKx7G-13" edge="1">
          <mxGeometry relative="1" as="geometry" />
        </mxCell>
        <mxCell id="pGSttOoYL-2_VQbNKx7G-16" style="edgeStyle=orthogonalEdgeStyle;rounded=0;orthogonalLoop=1;jettySize=auto;html=1;exitX=0.5;exitY=1;exitDx=0;exitDy=0;entryX=0.5;entryY=0;entryDx=0;entryDy=0;" parent="WIyWlLk6GJQsqaUBKTNV-1" source="pGSttOoYL-2_VQbNKx7G-3" target="pGSttOoYL-2_VQbNKx7G-11" edge="1">
          <mxGeometry relative="1" as="geometry" />
        </mxCell>
        <mxCell id="pGSttOoYL-2_VQbNKx7G-17" style="edgeStyle=orthogonalEdgeStyle;rounded=0;orthogonalLoop=1;jettySize=auto;html=1;exitX=0.5;exitY=1;exitDx=0;exitDy=0;entryX=0.5;entryY=0;entryDx=0;entryDy=0;" parent="WIyWlLk6GJQsqaUBKTNV-1" source="pGSttOoYL-2_VQbNKx7G-3" target="pGSttOoYL-2_VQbNKx7G-12" edge="1">
          <mxGeometry relative="1" as="geometry" />
        </mxCell>
        <mxCell id="pGSttOoYL-2_VQbNKx7G-30" style="edgeStyle=orthogonalEdgeStyle;rounded=0;orthogonalLoop=1;jettySize=auto;html=1;exitX=1;exitY=0.5;exitDx=0;exitDy=0;entryX=0;entryY=0.5;entryDx=0;entryDy=0;" parent="WIyWlLk6GJQsqaUBKTNV-1" source="pGSttOoYL-2_VQbNKx7G-3" target="pGSttOoYL-2_VQbNKx7G-27" edge="1">
          <mxGeometry relative="1" as="geometry" />
        </mxCell>
        <mxCell id="pGSttOoYL-2_VQbNKx7G-3" value="" style="rhombus;whiteSpace=wrap;html=1;" parent="WIyWlLk6GJQsqaUBKTNV-1" vertex="1">
          <mxGeometry x="311.94" y="240" width="80" height="80" as="geometry" />
        </mxCell>
        <mxCell id="pGSttOoYL-2_VQbNKx7G-8" value="Scelta dell&#39;azione da compiere" style="rounded=1;whiteSpace=wrap;html=1;" parent="WIyWlLk6GJQsqaUBKTNV-1" vertex="1">
          <mxGeometry x="291.94" y="130" width="120" height="60" as="geometry" />
        </mxCell>
        <mxCell id="pGSttOoYL-2_VQbNKx7G-34" style="edgeStyle=orthogonalEdgeStyle;rounded=0;orthogonalLoop=1;jettySize=auto;html=1;exitX=0.5;exitY=1;exitDx=0;exitDy=0;entryX=0.5;entryY=0;entryDx=0;entryDy=0;" parent="WIyWlLk6GJQsqaUBKTNV-1" source="pGSttOoYL-2_VQbNKx7G-10" target="pGSttOoYL-2_VQbNKx7G-33" edge="1">
          <mxGeometry relative="1" as="geometry" />
        </mxCell>
        <mxCell id="pGSttOoYL-2_VQbNKx7G-10" value="Help" style="rounded=1;whiteSpace=wrap;html=1;" parent="WIyWlLk6GJQsqaUBKTNV-1" vertex="1">
          <mxGeometry x="130.94" y="372" width="120" height="60" as="geometry" />
        </mxCell>
        <mxCell id="pGSttOoYL-2_VQbNKx7G-37" style="edgeStyle=orthogonalEdgeStyle;rounded=0;orthogonalLoop=1;jettySize=auto;html=1;exitX=0.5;exitY=1;exitDx=0;exitDy=0;" parent="WIyWlLk6GJQsqaUBKTNV-1" source="pGSttOoYL-2_VQbNKx7G-11" edge="1">
          <mxGeometry relative="1" as="geometry">
            <mxPoint x="351.94" y="480" as="targetPoint" />
          </mxGeometry>
        </mxCell>
        <mxCell id="pGSttOoYL-2_VQbNKx7G-11" value="Download" style="rounded=1;whiteSpace=wrap;html=1;" parent="WIyWlLk6GJQsqaUBKTNV-1" vertex="1">
          <mxGeometry x="291.94" y="372" width="120" height="60" as="geometry" />
        </mxCell>
        <mxCell id="pGSttOoYL-2_VQbNKx7G-20" style="edgeStyle=orthogonalEdgeStyle;rounded=0;orthogonalLoop=1;jettySize=auto;html=1;exitX=0;exitY=0.5;exitDx=0;exitDy=0;entryX=1;entryY=0.5;entryDx=0;entryDy=0;" parent="WIyWlLk6GJQsqaUBKTNV-1" source="pGSttOoYL-2_VQbNKx7G-12" target="pGSttOoYL-2_VQbNKx7G-11" edge="1">
          <mxGeometry relative="1" as="geometry" />
        </mxCell>
        <mxCell id="pGSttOoYL-2_VQbNKx7G-21" style="edgeStyle=orthogonalEdgeStyle;rounded=0;orthogonalLoop=1;jettySize=auto;html=1;exitX=1;exitY=0.5;exitDx=0;exitDy=0;entryX=0;entryY=0.5;entryDx=0;entryDy=0;" parent="WIyWlLk6GJQsqaUBKTNV-1" source="pGSttOoYL-2_VQbNKx7G-12" target="pGSttOoYL-2_VQbNKx7G-13" edge="1">
          <mxGeometry relative="1" as="geometry" />
        </mxCell>
        <mxCell id="pGSttOoYL-2_VQbNKx7G-12" value="Download ed estrazione" style="rounded=1;whiteSpace=wrap;html=1;" parent="WIyWlLk6GJQsqaUBKTNV-1" vertex="1">
          <mxGeometry x="451.94" y="372" width="120" height="60" as="geometry" />
        </mxCell>
        <mxCell id="pGSttOoYL-2_VQbNKx7G-84" style="edgeStyle=orthogonalEdgeStyle;rounded=0;orthogonalLoop=1;jettySize=auto;html=1;exitX=0.5;exitY=1;exitDx=0;exitDy=0;entryX=0.5;entryY=0;entryDx=0;entryDy=0;" parent="WIyWlLk6GJQsqaUBKTNV-1" source="pGSttOoYL-2_VQbNKx7G-13" target="pGSttOoYL-2_VQbNKx7G-66" edge="1">
          <mxGeometry relative="1" as="geometry" />
        </mxCell>
        <mxCell id="pGSttOoYL-2_VQbNKx7G-13" value="Estrazione" style="rounded=1;whiteSpace=wrap;html=1;" parent="WIyWlLk6GJQsqaUBKTNV-1" vertex="1">
          <mxGeometry x="610.94" y="372" width="120" height="60" as="geometry" />
        </mxCell>
        <mxCell id="pGSttOoYL-2_VQbNKx7G-18" value="" style="ellipse;fillColor=strokeColor;html=1;" parent="WIyWlLk6GJQsqaUBKTNV-1" vertex="1">
          <mxGeometry x="336.94" y="20" width="30" height="30" as="geometry" />
        </mxCell>
        <mxCell id="pGSttOoYL-2_VQbNKx7G-32" style="edgeStyle=orthogonalEdgeStyle;rounded=0;orthogonalLoop=1;jettySize=auto;html=1;exitX=0.5;exitY=0;exitDx=0;exitDy=0;entryX=1;entryY=0.5;entryDx=0;entryDy=0;" parent="WIyWlLk6GJQsqaUBKTNV-1" source="pGSttOoYL-2_VQbNKx7G-27" target="pGSttOoYL-2_VQbNKx7G-8" edge="1">
          <mxGeometry relative="1" as="geometry" />
        </mxCell>
        <mxCell id="pGSttOoYL-2_VQbNKx7G-27" value="Messaggio di errore" style="rounded=1;whiteSpace=wrap;html=1;" parent="WIyWlLk6GJQsqaUBKTNV-1" vertex="1">
          <mxGeometry x="501.94" y="250" width="120" height="60" as="geometry" />
        </mxCell>
        <mxCell id="pGSttOoYL-2_VQbNKx7G-7" value="Scelta non supportata" style="text;html=1;align=center;verticalAlign=middle;resizable=0;points=[];autosize=1;strokeColor=none;fillColor=none;rounded=0;fontSize=10;" parent="WIyWlLk6GJQsqaUBKTNV-1" vertex="1">
          <mxGeometry x="377.94" y="240" width="130" height="30" as="geometry" />
        </mxCell>
        <mxCell id="QISGLWWEZg4wHyY-FCXr-8" style="edgeStyle=orthogonalEdgeStyle;rounded=0;orthogonalLoop=1;jettySize=auto;html=1;exitX=0;exitY=0.5;exitDx=0;exitDy=0;entryX=0;entryY=0.5;entryDx=0;entryDy=0;" edge="1" parent="WIyWlLk6GJQsqaUBKTNV-1" source="pGSttOoYL-2_VQbNKx7G-33" target="pGSttOoYL-2_VQbNKx7G-8">
          <mxGeometry relative="1" as="geometry">
            <Array as="points">
              <mxPoint x="96.94" y="510" />
              <mxPoint x="96.94" y="160" />
            </Array>
          </mxGeometry>
        </mxCell>
        <mxCell id="pGSttOoYL-2_VQbNKx7G-33" value="MenÃ¹ di supporto" style="rounded=1;whiteSpace=wrap;html=1;" parent="WIyWlLk6GJQsqaUBKTNV-1" vertex="1">
          <mxGeometry x="130.94" y="480" width="120" height="60" as="geometry" />
        </mxCell>
        <mxCell id="pGSttOoYL-2_VQbNKx7G-42" style="edgeStyle=orthogonalEdgeStyle;rounded=0;orthogonalLoop=1;jettySize=auto;html=1;exitX=0.5;exitY=1;exitDx=0;exitDy=0;entryX=0.5;entryY=0;entryDx=0;entryDy=0;" parent="WIyWlLk6GJQsqaUBKTNV-1" source="pGSttOoYL-2_VQbNKx7G-40" target="pGSttOoYL-2_VQbNKx7G-41" edge="1">
          <mxGeometry relative="1" as="geometry" />
        </mxCell>
        <mxCell id="pGSttOoYL-2_VQbNKx7G-52" value="non presente" style="edgeLabel;html=1;align=center;verticalAlign=middle;resizable=0;points=[];" parent="pGSttOoYL-2_VQbNKx7G-42" vertex="1" connectable="0">
          <mxGeometry x="-0.0427" relative="1" as="geometry">
            <mxPoint x="-45" y="8" as="offset" />
          </mxGeometry>
        </mxCell>
        <mxCell id="pGSttOoYL-2_VQbNKx7G-48" style="edgeStyle=orthogonalEdgeStyle;rounded=0;orthogonalLoop=1;jettySize=auto;html=1;exitX=0.5;exitY=1;exitDx=0;exitDy=0;entryX=0.5;entryY=0;entryDx=0;entryDy=0;" parent="WIyWlLk6GJQsqaUBKTNV-1" source="pGSttOoYL-2_VQbNKx7G-40" target="pGSttOoYL-2_VQbNKx7G-47" edge="1">
          <mxGeometry relative="1" as="geometry" />
        </mxCell>
        <mxCell id="pGSttOoYL-2_VQbNKx7G-40" value="API key" style="rounded=1;whiteSpace=wrap;html=1;" parent="WIyWlLk6GJQsqaUBKTNV-1" vertex="1">
          <mxGeometry x="291.94" y="480" width="120" height="60" as="geometry" />
        </mxCell>
        <mxCell id="6ZSsys-piH7QAnNcfmuM-6" style="edgeStyle=none;curved=1;rounded=0;orthogonalLoop=1;jettySize=auto;html=1;exitX=0.5;exitY=1;exitDx=0;exitDy=0;entryX=0.5;entryY=0;entryDx=0;entryDy=0;fontSize=12;startSize=8;endSize=8;" parent="WIyWlLk6GJQsqaUBKTNV-1" source="pGSttOoYL-2_VQbNKx7G-41" target="pGSttOoYL-2_VQbNKx7G-43" edge="1">
          <mxGeometry relative="1" as="geometry" />
        </mxCell>
        <mxCell id="pGSttOoYL-2_VQbNKx7G-41" value="Messaggio di errore" style="rounded=1;whiteSpace=wrap;html=1;" parent="WIyWlLk6GJQsqaUBKTNV-1" vertex="1">
          <mxGeometry x="130.94" y="585" width="120" height="60" as="geometry" />
        </mxCell>
        <mxCell id="pGSttOoYL-2_VQbNKx7G-43" value="" style="ellipse;html=1;shape=endState;fillColor=strokeColor;" parent="WIyWlLk6GJQsqaUBKTNV-1" vertex="1">
          <mxGeometry x="175.94" y="680" width="30" height="30" as="geometry" />
        </mxCell>
        <mxCell id="6ZSsys-piH7QAnNcfmuM-2" style="edgeStyle=none;curved=1;rounded=0;orthogonalLoop=1;jettySize=auto;html=1;exitX=0.5;exitY=1;exitDx=0;exitDy=0;entryX=0.5;entryY=0;entryDx=0;entryDy=0;fontSize=12;startSize=8;endSize=8;" parent="WIyWlLk6GJQsqaUBKTNV-1" source="pGSttOoYL-2_VQbNKx7G-47" target="pGSttOoYL-2_VQbNKx7G-53" edge="1">
          <mxGeometry relative="1" as="geometry" />
        </mxCell>
        <mxCell id="pGSttOoYL-2_VQbNKx7G-47" value="Seleziona argomento" style="rounded=1;whiteSpace=wrap;html=1;verticalAlign=middle;" parent="WIyWlLk6GJQsqaUBKTNV-1" vertex="1">
          <mxGeometry x="291.94" y="585" width="120" height="60" as="geometry" />
        </mxCell>
        <mxCell id="6ZSsys-piH7QAnNcfmuM-3" style="edgeStyle=none;curved=1;rounded=0;orthogonalLoop=1;jettySize=auto;html=1;exitX=0.5;exitY=1;exitDx=0;exitDy=0;entryX=0.5;entryY=0;entryDx=0;entryDy=0;fontSize=12;startSize=8;endSize=8;" parent="WIyWlLk6GJQsqaUBKTNV-1" source="pGSttOoYL-2_VQbNKx7G-53" target="pGSttOoYL-2_VQbNKx7G-55" edge="1">
          <mxGeometry relative="1" as="geometry" />
        </mxCell>
        <mxCell id="pGSttOoYL-2_VQbNKx7G-53" value="Scarica la quantitÃ  di articoli desiderata" style="rounded=1;whiteSpace=wrap;html=1;verticalAlign=middle;" parent="WIyWlLk6GJQsqaUBKTNV-1" vertex="1">
          <mxGeometry x="291.94" y="690" width="120" height="60" as="geometry" />
        </mxCell>
        <mxCell id="6ZSsys-piH7QAnNcfmuM-4" style="edgeStyle=none;curved=1;rounded=0;orthogonalLoop=1;jettySize=auto;html=1;exitX=0.5;exitY=1;exitDx=0;exitDy=0;entryX=0.5;entryY=0;entryDx=0;entryDy=0;fontSize=12;startSize=8;endSize=8;" parent="WIyWlLk6GJQsqaUBKTNV-1" source="pGSttOoYL-2_VQbNKx7G-55" target="pGSttOoYL-2_VQbNKx7G-57" edge="1">
          <mxGeometry relative="1" as="geometry" />
        </mxCell>
        <mxCell id="pGSttOoYL-2_VQbNKx7G-55" value="Serializza gli articoli scaricati" style="rounded=1;whiteSpace=wrap;html=1;verticalAlign=middle;" parent="WIyWlLk6GJQsqaUBKTNV-1" vertex="1">
          <mxGeometry x="291.94" y="792" width="120" height="60" as="geometry" />
        </mxCell>
        <mxCell id="6ZSsys-piH7QAnNcfmuM-5" style="edgeStyle=none;curved=1;rounded=0;orthogonalLoop=1;jettySize=auto;html=1;exitX=0.5;exitY=1;exitDx=0;exitDy=0;entryX=0.5;entryY=0;entryDx=0;entryDy=0;fontSize=12;startSize=8;endSize=8;" parent="WIyWlLk6GJQsqaUBKTNV-1" source="pGSttOoYL-2_VQbNKx7G-57" target="pGSttOoYL-2_VQbNKx7G-60" edge="1">
          <mxGeometry relative="1" as="geometry" />
        </mxCell>
        <mxCell id="pGSttOoYL-2_VQbNKx7G-57" value="Immagazzina gli articoli serializzati" style="rounded=1;whiteSpace=wrap;html=1;verticalAlign=middle;" parent="WIyWlLk6GJQsqaUBKTNV-1" vertex="1">
          <mxGeometry x="291.94" y="890" width="120" height="60" as="geometry" />
        </mxCell>
        <mxCell id="QISGLWWEZg4wHyY-FCXr-7" style="edgeStyle=orthogonalEdgeStyle;rounded=0;orthogonalLoop=1;jettySize=auto;html=1;exitX=0.5;exitY=1;exitDx=0;exitDy=0;entryX=0.5;entryY=0;entryDx=0;entryDy=0;strokeWidth=1;" edge="1" parent="WIyWlLk6GJQsqaUBKTNV-1" source="pGSttOoYL-2_VQbNKx7G-60" target="QISGLWWEZg4wHyY-FCXr-1">
          <mxGeometry relative="1" as="geometry" />
        </mxCell>
        <mxCell id="pGSttOoYL-2_VQbNKx7G-60" value="Genera il file &quot;Articles.json&quot;" style="rounded=1;whiteSpace=wrap;html=1;verticalAlign=middle;" parent="WIyWlLk6GJQsqaUBKTNV-1" vertex="1">
          <mxGeometry x="291.94" y="990" width="120" height="60" as="geometry" />
        </mxCell>
        <mxCell id="pGSttOoYL-2_VQbNKx7G-64" value="&lt;div&gt;presente&lt;/div&gt;" style="text;html=1;align=center;verticalAlign=middle;resizable=0;points=[];autosize=1;strokeColor=none;fillColor=none;" parent="WIyWlLk6GJQsqaUBKTNV-1" vertex="1">
          <mxGeometry x="345.94" y="554" width="70" height="30" as="geometry" />
        </mxCell>
        <mxCell id="pGSttOoYL-2_VQbNKx7G-69" style="edgeStyle=orthogonalEdgeStyle;rounded=0;orthogonalLoop=1;jettySize=auto;html=1;exitX=0.5;exitY=1;exitDx=0;exitDy=0;entryX=0.5;entryY=0;entryDx=0;entryDy=0;" parent="WIyWlLk6GJQsqaUBKTNV-1" source="pGSttOoYL-2_VQbNKx7G-66" target="pGSttOoYL-2_VQbNKx7G-67" edge="1">
          <mxGeometry relative="1" as="geometry" />
        </mxCell>
        <mxCell id="pGSttOoYL-2_VQbNKx7G-70" style="edgeStyle=orthogonalEdgeStyle;rounded=0;orthogonalLoop=1;jettySize=auto;html=1;exitX=0.5;exitY=1;exitDx=0;exitDy=0;entryX=0.5;entryY=0;entryDx=0;entryDy=0;" parent="WIyWlLk6GJQsqaUBKTNV-1" source="pGSttOoYL-2_VQbNKx7G-66" target="pGSttOoYL-2_VQbNKx7G-68" edge="1">
          <mxGeometry relative="1" as="geometry" />
        </mxCell>
        <mxCell id="pGSttOoYL-2_VQbNKx7G-71" value="esiste" style="edgeLabel;html=1;align=center;verticalAlign=middle;resizable=0;points=[];" parent="pGSttOoYL-2_VQbNKx7G-70" vertex="1" connectable="0">
          <mxGeometry x="0.3397" y="3" relative="1" as="geometry">
            <mxPoint x="18" as="offset" />
          </mxGeometry>
        </mxCell>
        <mxCell id="pGSttOoYL-2_VQbNKx7G-66" value="Articles.json" style="rounded=1;whiteSpace=wrap;html=1;" parent="WIyWlLk6GJQsqaUBKTNV-1" vertex="1">
          <mxGeometry x="610.94" y="480" width="120" height="60" as="geometry" />
        </mxCell>
        <mxCell id="QISGLWWEZg4wHyY-FCXr-14" style="edgeStyle=orthogonalEdgeStyle;rounded=0;orthogonalLoop=1;jettySize=auto;html=1;exitX=0.5;exitY=1;exitDx=0;exitDy=0;entryX=0.5;entryY=0;entryDx=0;entryDy=0;" edge="1" parent="WIyWlLk6GJQsqaUBKTNV-1" source="pGSttOoYL-2_VQbNKx7G-67" target="QISGLWWEZg4wHyY-FCXr-12">
          <mxGeometry relative="1" as="geometry" />
        </mxCell>
        <mxCell id="pGSttOoYL-2_VQbNKx7G-67" value="Messaggio di errore" style="rounded=1;whiteSpace=wrap;html=1;" parent="WIyWlLk6GJQsqaUBKTNV-1" vertex="1">
          <mxGeometry x="451.94" y="585" width="120" height="60" as="geometry" />
        </mxCell>
        <mxCell id="6ZSsys-piH7QAnNcfmuM-0" style="edgeStyle=none;curved=1;rounded=0;orthogonalLoop=1;jettySize=auto;html=1;exitX=0.5;exitY=1;exitDx=0;exitDy=0;entryX=0.5;entryY=0;entryDx=0;entryDy=0;fontSize=12;startSize=8;endSize=8;" parent="WIyWlLk6GJQsqaUBKTNV-1" source="pGSttOoYL-2_VQbNKx7G-68" target="pGSttOoYL-2_VQbNKx7G-75" edge="1">
          <mxGeometry relative="1" as="geometry" />
        </mxCell>
        <mxCell id="pGSttOoYL-2_VQbNKx7G-68" value="Deserializza gli articoli" style="rounded=1;whiteSpace=wrap;html=1;" parent="WIyWlLk6GJQsqaUBKTNV-1" vertex="1">
          <mxGeometry x="610.94" y="585" width="120" height="60" as="geometry" />
        </mxCell>
        <mxCell id="pGSttOoYL-2_VQbNKx7G-72" value="non esiste" style="text;html=1;align=center;verticalAlign=middle;resizable=0;points=[];autosize=1;strokeColor=none;fillColor=none;" parent="WIyWlLk6GJQsqaUBKTNV-1" vertex="1">
          <mxGeometry x="507.94" y="555" width="80" height="30" as="geometry" />
        </mxCell>
        <mxCell id="6ZSsys-piH7QAnNcfmuM-7" style="edgeStyle=none;curved=1;rounded=0;orthogonalLoop=1;jettySize=auto;html=1;exitX=0.5;exitY=1;exitDx=0;exitDy=0;entryX=0.5;entryY=0;entryDx=0;entryDy=0;fontSize=12;startSize=8;endSize=8;" parent="WIyWlLk6GJQsqaUBKTNV-1" source="pGSttOoYL-2_VQbNKx7G-73" target="pGSttOoYL-2_VQbNKx7G-76" edge="1">
          <mxGeometry relative="1" as="geometry" />
        </mxCell>
        <mxCell id="pGSttOoYL-2_VQbNKx7G-73" value="Immagazzina i termini estratti" style="rounded=1;whiteSpace=wrap;html=1;" parent="WIyWlLk6GJQsqaUBKTNV-1" vertex="1">
          <mxGeometry x="610.94" y="792" width="120" height="60" as="geometry" />
        </mxCell>
        <mxCell id="6ZSsys-piH7QAnNcfmuM-1" style="edgeStyle=none;curved=1;rounded=0;orthogonalLoop=1;jettySize=auto;html=1;exitX=0.5;exitY=1;exitDx=0;exitDy=0;entryX=0.5;entryY=0;entryDx=0;entryDy=0;fontSize=12;startSize=8;endSize=8;" parent="WIyWlLk6GJQsqaUBKTNV-1" source="pGSttOoYL-2_VQbNKx7G-75" target="pGSttOoYL-2_VQbNKx7G-73" edge="1">
          <mxGeometry relative="1" as="geometry" />
        </mxCell>
        <mxCell id="pGSttOoYL-2_VQbNKx7G-75" value="Estrae i termini piÃ¹ importanti" style="rounded=1;whiteSpace=wrap;html=1;" parent="WIyWlLk6GJQsqaUBKTNV-1" vertex="1">
          <mxGeometry x="610.94" y="690" width="120" height="60" as="geometry" />
        </mxCell>
        <mxCell id="QISGLWWEZg4wHyY-FCXr-6" style="edgeStyle=orthogonalEdgeStyle;rounded=0;orthogonalLoop=1;jettySize=auto;html=1;exitX=0.5;exitY=1;exitDx=0;exitDy=0;entryX=0.5;entryY=0;entryDx=0;entryDy=0;" edge="1" parent="WIyWlLk6GJQsqaUBKTNV-1" source="pGSttOoYL-2_VQbNKx7G-76" target="QISGLWWEZg4wHyY-FCXr-4">
          <mxGeometry relative="1" as="geometry" />
        </mxCell>
        <mxCell id="pGSttOoYL-2_VQbNKx7G-76" value="Genera il file &quot;Terms.txt&quot;" style="rounded=1;whiteSpace=wrap;html=1;" parent="WIyWlLk6GJQsqaUBKTNV-1" vertex="1">
          <mxGeometry x="610.94" y="890" width="120" height="60" as="geometry" />
        </mxCell>
        <mxCell id="QISGLWWEZg4wHyY-FCXr-1" value="" style="ellipse;html=1;shape=endState;fillColor=strokeColor;" vertex="1" parent="WIyWlLk6GJQsqaUBKTNV-1">
          <mxGeometry x="336.94" y="1085" width="30" height="30" as="geometry" />
        </mxCell>
        <mxCell id="QISGLWWEZg4wHyY-FCXr-4" value="" style="ellipse;html=1;shape=endState;fillColor=strokeColor;" vertex="1" parent="WIyWlLk6GJQsqaUBKTNV-1">
          <mxGeometry x="655.94" y="985" width="30" height="30" as="geometry" />
        </mxCell>
        <mxCell id="QISGLWWEZg4wHyY-FCXr-12" value="" style="ellipse;html=1;shape=endState;fillColor=strokeColor;" vertex="1" parent="WIyWlLk6GJQsqaUBKTNV-1">
          <mxGeometry x="496.94" y="680" width="30" height="30" as="geometry" />
        </mxCell>
      </root>
    </mxGraphModel>
  </diagram>
</mxfile>
